/* XPM */
static char *closeA[]={
"20 40 6 1",
". c #008000",
"# c #00c000",
"d c #c00000",
"c c #dcdcdc",
"b c #ff0000",
"a c #ffffff",
"....................",
"....................",
".#aaaaaaaaaaaaaaa#..",
".abbbbbbbbbbbbbbba..",
".abbbbbbbbbbbbbbba..",
".abbaabbbbbbbaabba..",
".abbbaabbbbbaabbba..",
".abbbbaabbbaabbbba..",
".abbbbbaabaabbbbba..",
".abbbbbbaaabbbbbba..",
".abbbbbbaaabbbbbba..",
".abbbbbaabaabbbbba..",
".abbbbaabbbaabbbba..",
".abbbaabbbbbaabbba..",
".abbaabbbbbbbaabba..",
".abbbbbbbbbbbbbbba..",
".abbbbbbbbbbbbbbba..",
".#aaaaaaaaaaaaaaa#..",
"....................",
"....................",
"....................",
"....................",
".#ccccccccccccccc#..",
".cdddddddddddddddc..",
".cdddddddddddddddc..",
".cddccdddddddccddc..",
".cdddccdddddccdddc..",
".cddddccdddccddddc..",
".cdddddccdccdddddc..",
".cddddddcccddddddc..",
".cddddddcccddddddc..",
".cdddddccdccdddddc..",
".cddddccdddccddddc..",
".cdddccdddddccdddc..",
".cddccdddddddccddc..",
".cdddddddddddddddc..",
".cdddddddddddddddc..",
".#ccccccccccccccc#..",
"....................",
"...................."};
