/* XPM */
static char *closeI[]={
"20 40 5 1",
"c c #7d4f17",
". c #bd7823",
"b c #dcdcdc",
"# c #ffa12f",
"a c #ffffff",
"....................",
"....................",
".#aaaaaaaaaaaaaaa#..",
".a...............a..",
".a...............a..",
".a..aa.......aa..a..",
".a...aa.....aa...a..",
".a....aa...aa....a..",
".a.....aa.aa.....a..",
".a......aaa......a..",
".a......aaa......a..",
".a.....aa.aa.....a..",
".a....aa...aa....a..",
".a...aa.....aa...a..",
".a..aa.......aa..a..",
".a...............a..",
".a...............a..",
".#aaaaaaaaaaaaaaa#..",
"....................",
"....................",
"....................",
"....................",
".#bbbbbbbbbbbbbbb#..",
".bcccccccccccccccb..",
".bcccccccccccccccb..",
".bccbbcccccccbbccb..",
".bcccbbcccccbbcccb..",
".bccccbbcccbbccccb..",
".bcccccbbcbbcccccb..",
".bccccccbbbccccccb..",
".bccccccbbbccccccb..",
".bcccccbbcbbcccccb..",
".bccccbbcccbbccccb..",
".bcccbbcccccbbcccb..",
".bccbbcccccccbbccb..",
".bcccccccccccccccb..",
".bcccccccccccccccb..",
".#bbbbbbbbbbbbbbb#..",
"....................",
"...................."};
