/* XPM */
static char *depthA[]={
"20 40 5 1",
". c #008000",
"# c #00c000",
"c c #195900",
"b c #dcdcdc",
"a c #ffffff",
"....................",
"....................",
".#aaaaaaaaaaaaaaa#..",
".a#.............#a..",
".a...............a..",
".a...............a..",
".a.....aaaaa.....a..",
".a......aaa......a..",
".a......aaa......a..",
".a......aaa......a..",
".a....aaaaaaa....a..",
".a.......a.......a..",
".a.......a.......a..",
".a.......a.......a..",
".a.......a.......a..",
".a...............a..",
".a#.............#a..",
".#aaaaaaaaaaaaaaa#..",
"....................",
"....................",
"....................",
"....................",
".#bbbbbbbbbbbbbbb#..",
".bcccccccccccccccb..",
".bcccccccccccccccb..",
".bcccccccccccccccb..",
".bcccccbbbbbcccccb..",
".bccccccbbbccccccb..",
".bccccccbbbccccccb..",
".bccccccbbbccccccb..",
".bccccbbbbbbbccccb..",
".bcccccccbcccccccb..",
".bcccccccbcccccccb..",
".bcccccccbcccccccb..",
".bcccccccbcccccccb..",
".bcccccccccccccccb..",
".bcccccccccccccccb..",
".#bbbbbbbbbbbbbbb#..",
"....................",
"...................."};
