/* XPM */
static char *frameITL[]={
"20 22 3 1",
"# c #00ff00",
"a c #57d21a",
". c #c0ffc0",
".###################",
"#aaaaaaaaaaaaaaaaaaa",
"#aaaaaaaaaaaaaaaaaaa",
"#aaaaaaaaaaaaaaaaaaa",
"#aaaaaaaaaaaaaaaaaaa",
"#aaaaaaaaaaaaaaaaaaa",
"#aaaaaaaaaaaaaaaaaaa",
"#aaaaaaaaaaaaaaaaaaa",
"#aaaaaaaaaaaaaaaaaaa",
"#aaaaaaaaaaaaaaaaaaa",
"#aaaaaaaaaaaaaaaaaaa",
"#aaaaaaaaaaaaaaaaaaa",
"#aaaaaaaaaaaaaaaaaaa",
"#aaaaaaaaaaaaaaaaaaa",
"#aaaaaaaaaaaaaaaaaaa",
"#aaaaaaaaaaaaaaaaaaa",
"#aaaaaaaaaaaaaaaaaaa",
"#aaaaaaaaaaaaaaaaaaa",
"#aaaaaaaaaaaaaaaaaaa",
"#aaaaaaaaaaaaaaaaaaa",
"#aaaaaaaaaaaaaaaaaaa",
"#aaaaaaaaaaaaaaaaaaa"};
