/* XPM */
static char *frameABL[]={
"20 22 4 1",
"a c #bd7823",
"# c #ea942b",
". c #ffcd29",
"b c #ffff00",
".###################",
".###################",
".###################",
".###################",
".###################",
".###################",
".###################",
".###################",
".###################",
".###################",
".###################",
".###################",
".###################",
".###################",
".###################",
".###################",
".###################",
".###################",
".###################",
".##aaaaaaaaaaaaaaaaa",
".#aaaaaaaaaaaaaaaaaa",
"b###################"};
