/* XPM */
static char *frameIL[]={
"3 3 2 1",
". c #00ff00",
"# c #57d21a",
".##",
".##",
".##"};
