/* XPM */
static char *frameATL[]={
"20 22 3 1",
"a c #ea942b",
"# c #ffcd29",
". c #ffff00",
".###################",
"#aaaaaaaaaaaaaaaaaaa",
"#aaaaaaaaaaaaaaaaaaa",
"#aaaaaaaaaaaaaaaaaaa",
"#aaaaaaaaaaaaaaaaaaa",
"#aaaaaaaaaaaaaaaaaaa",
"#aaaaaaaaaaaaaaaaaaa",
"#aaaaaaaaaaaaaaaaaaa",
"#aaaaaaaaaaaaaaaaaaa",
"#aaaaaaaaaaaaaaaaaaa",
"#aaaaaaaaaaaaaaaaaaa",
"#aaaaaaaaaaaaaaaaaaa",
"#aaaaaaaaaaaaaaaaaaa",
"#aaaaaaaaaaaaaaaaaaa",
"#aaaaaaaaaaaaaaaaaaa",
"#aaaaaaaaaaaaaaaaaaa",
"#aaaaaaaaaaaaaaaaaaa",
"#aaaaaaaaaaaaaaaaaaa",
"#aaaaaaaaaaaaaaaaaaa",
"#aaaaaaaaaaaaaaaaaaa",
"#aaaaaaaaaaaaaaaaaaa",
"#aaaaaaaaaaaaaaaaaaa"};
