/* XPM */
static char *frameIBR[]={
"20 22 3 1",
". c #008000",
"# c #00c000",
"a c #57d21a",
"...................#",
"...................#",
"...................#",
"...................#",
"...................#",
"...................#",
"...................#",
"...................#",
"...................#",
"...................#",
"...................#",
"...................#",
"...................#",
"...................#",
"...................#",
"...................#",
"...................#",
"...................#",
"...................#",
"...................#",
"...................#",
"###################a"};
