/* XPM */
static char *frameABR[]={
"20 22 3 1",
". c #bd7823",
"# c #ea942b",
"a c #ffa12f",
"...................#",
"...................#",
"...................#",
"...................#",
"...................#",
"...................#",
"...................#",
"...................#",
"...................#",
"...................#",
"...................#",
"...................#",
"...................#",
"...................#",
"...................#",
"...................#",
"...................#",
"...................#",
"...................#",
"...................#",
"...................#",
"###################a"};
