/* XPM */
static char *frameAB[]={
"3 3 2 1",
". c #bd7823",
"# c #ea942b",
"...",
"...",
"###"};
