/* XPM */
static char *frameATR[]={
"20 22 4 1",
"b c #bd7823",
"a c #ea942b",
". c #ffcd29",
"# c #ffff00",
"...................#",
"aaaaaaaaaaaaaaaaaaaa",
"aaaaaaaaaaaaaaaaaaaa",
"bbbbbbbbbbbbbbbbbbba",
"bbbbbbbbbbbbbbbbbbba",
"bbbbbbbbbbbbbbbbbbba",
"bbbbbbbbbbbbbbbbbbba",
"bbbbbbbbbbbbbbbbbbba",
"bbbbbbbbbbbbbbbbbbba",
"bbbbbbbbbbbbbbbbbbba",
"bbbbbbbbbbbbbbbbbbba",
"bbbbbbbbbbbbbbbbbbba",
"bbbbbbbbbbbbbbbbbbba",
"bbbbbbbbbbbbbbbbbbba",
"bbbbbbbbbbbbbbbbbbba",
"bbbbbbbbbbbbbbbbbbba",
"bbbbbbbbbbbbbbbbbbba",
"bbbbbbbbbbbbbbbbbbba",
"bbbbbbbbbbbbbbbbbbba",
"bbbbbbbbbbbbbbbbbbba",
"bbbbbbbbbbbbbbbbbbba",
"bbbbbbbbbbbbbbbbbbba"};
