/* XPM */
static char *frameIBL[]={
"20 22 5 1",
"a c #008000",
"c c #00c000",
". c #00ff00",
"# c #57d21a",
"b c #c0ffc0",
".###################",
".###################",
".###################",
".###################",
".###################",
".###################",
".###################",
".###################",
".###################",
".###################",
".###################",
".###################",
".###################",
".###################",
".###################",
".###################",
".###################",
".###################",
".###################",
".##aaaaaaaaaaaaaaaaa",
".#aaaaaaaaaaaaaaaaaa",
"bccccccccccccccccccc"};
