/* XPM */
static char *frameITR[]={
"20 22 5 1",
"c c #008000",
"b c #00c000",
". c #00ff00",
"a c #57d21a",
"# c #c0ffc0",
"...................#",
"aaaaaaaaaaaaaaaaaaaa",
"aaaaaaaaaaaaaaaaaaab",
"cccccccccccccccccccb",
"cccccccccccccccccccb",
"cccccccccccccccccccb",
"cccccccccccccccccccb",
"cccccccccccccccccccb",
"cccccccccccccccccccb",
"cccccccccccccccccccb",
"cccccccccccccccccccb",
"cccccccccccccccccccb",
"cccccccccccccccccccb",
"cccccccccccccccccccb",
"cccccccccccccccccccb",
"cccccccccccccccccccb",
"cccccccccccccccccccb",
"cccccccccccccccccccb",
"cccccccccccccccccccb",
"cccccccccccccccccccb",
"cccccccccccccccccccb",
"cccccccccccccccccccb"};
