/* XPM */
static char *frameAT[]={
"5 3 2 1",
"# c #ea942b",
". c #ffcd29",
".....",
"#####",
"#####"};
