/* XPM */
static char *maximizeI[]={
"20 40 5 1",
"c c #7d4f17",
". c #bd7823",
"b c #dcdcdc",
"# c #ffa12f",
"a c #ffffff",
"....................",
"....................",
".#aaaaaaaaaaaaaaa#..",
".a...............a..",
".a...............a..",
".a..aaaaaaaaaaa..a..",
".a..aaaaaaaaaaa..a..",
".a..a.........a..a..",
".a..a.........a..a..",
".a..a.........a..a..",
".a..a.........a..a..",
".a..a.........a..a..",
".a..a.........a..a..",
".a..a.........a..a..",
".a..aaaaaaaaaaa..a..",
".a...............a..",
".a...............a..",
".#aaaaaaaaaaaaaaa#..",
"....................",
"....................",
"....................",
"....................",
".#bbbbbbbbbbbbbbb#..",
".bcccccccccccccccb..",
".bcccccccccccccccb..",
".bccbbbbbbbbbbbccb..",
".bccbbbbbbbbbbbccb..",
".bccbcccccccccbccb..",
".bccbcccccccccbccb..",
".bccbcccccccccbccb..",
".bccbcccccccccbccb..",
".bccbcccccccccbccb..",
".bccbcccccccccbccb..",
".bccbcccccccccbccb..",
".bccbbbbbbbbbbbccb..",
".bcccccccccccccccb..",
".bcccccccccccccccb..",
".#bbbbbbbbbbbbbbb#..",
"....................",
"...................."};
