/* XPM */
static char *menuButtonA[]={
"20 40 2 1",
"# c #bd7823",
". c #ea942b",
"....................",
"....................",
"....................",
"....................",
"....................",
"....................",
"....................",
"....................",
"....................",
"....................",
"....................",
"....................",
"....................",
"....................",
"....................",
"....................",
"....................",
"....................",
"....................",
"....................",
"####################",
"####################",
"####################",
"####################",
"####################",
"####################",
"####################",
"####################",
"####################",
"####################",
"####################",
"####################",
"####################",
"####################",
"####################",
"####################",
"####################",
"####################",
"####################",
"####################"};
