/* XPM */
static char *menuButtonI[]={
"20 40 2 1",
"# c #00c000",
". c #57d21a",
"....................",
"....................",
"....................",
"....................",
"....................",
"....................",
"....................",
"....................",
"....................",
"....................",
"....................",
"....................",
"....................",
"....................",
"....................",
"....................",
"....................",
"....................",
"....................",
"....................",
"####################",
"####################",
"####################",
"####################",
"####################",
"####################",
"####################",
"####################",
"####################",
"####################",
"####################",
"####################",
"####################",
"####################",
"####################",
"####################",
"####################",
"####################",
"####################",
"####################"};
