/* XPM */
static char *minimizeI[]={
"20 40 5 1",
"b c #7d4f17",
". c #bd7823",
"c c #dcdcdc",
"# c #f8c728",
"a c #ffffff",
"....................",
"....................",
".#aaaaaaaaaaaaaaa#..",
".a...............a..",
".a...............a..",
".a...............a..",
".a...............a..",
".a...............a..",
".a...............a..",
".a...............a..",
".a...............a..",
".a...............a..",
".a...............a..",
".a..aaaaaaaaaaa..a..",
".a..aaaaaaaaaaa..a..",
".a...............a..",
".a...............a..",
".#aaaaaaaaaaaaaaa#..",
"....................",
"....................",
"....................",
"....................",
".#aaaaaaaaaaaaaaa#..",
".abbbbbbbbbbbbbbba..",
".abbbbbbbbbbbbbbba..",
".abbbbbbbbbbbbbbba..",
".abbbbbbbbbbbbbbba..",
".abbbbbbbbbbbbbbba..",
".abbbbbbbbbbbbbbba..",
".abbbbbbbbbbbbbbba..",
".abbbbbbbbbbbbbbba..",
".abbbbbbbbbbbbbbba..",
".abbbbbbbbbbbbbbba..",
".abbcccccccccccbba..",
".abbcccccccccccbba..",
".abbbbbbbbbbbbbbba..",
".abbbbbbbbbbbbbbba..",
".#aaaaaaaaaaaaaaa#..",
"....................",
"...................."};
