/* XPM */
static char *restoreI[]={
"20 40 5 1",
"c c #7d4f17",
". c #bd7823",
"b c #dcdcdc",
"# c #ffa12f",
"a c #ffffff",
"....................",
"....................",
".#aaaaaaaaaaaaaaa#..",
".a...............a..",
".a...............a..",
".a.....aaaaaaaa..a..",
".a.....aaaaaaaa..a..",
".a.....a......a..a..",
".a..aaaaaaaaa.a..a..",
".a..aaaaaaaaa.a..a..",
".a..a.......a.a..a..",
".a..a.......aaa..a..",
".a..a.......a....a..",
".a..a.......a....a..",
".a..aaaaaaaaa....a..",
".a...............a..",
".a...............a..",
".#aaaaaaaaaaaaaaa#..",
"....................",
"....................",
"....................",
"....................",
".#bbbbbbbbbbbbbbb#..",
".bcccccccccccccccb..",
".bcccccccccccccccb..",
".bcccccbbbbbbbbccb..",
".bcccccbbbbbbbbccb..",
".bcccccbccccccbccb..",
".bccbbbbbbbbbcbccb..",
".bccbbbbbbbbbcbccb..",
".bccbcccccccbcbccb..",
".bccbcccccccbbbccb..",
".bccbcccccccbccccb..",
".bccbcccccccbccccb..",
".bccbbbbbbbbbccccb..",
".bcccccccccccccccb..",
".bcccccccccccccccb..",
".#bbbbbbbbbbbbbbb#..",
"....................",
"...................."};
