/* XPM */
static char *restoreA[]={
"20 40 5 1",
". c #008000",
"# c #00c000",
"c c #195900",
"b c #dcdcdc",
"a c #ffffff",
"....................",
"....................",
".#aaaaaaaaaaaaaaa#..",
".a###############a..",
".a###############a..",
".a#####aaaaaaaa##a..",
".a#####aaaaaaaa##a..",
".a#####a######a##a..",
".a##aaaaaaaaa#a##a..",
".a##aaaaaaaaa#a##a..",
".a##a#######a#a##a..",
".a##a#######aaa##a..",
".a##a#######a####a..",
".a##a#######a####a..",
".a##aaaaaaaaa####a..",
".a###############a..",
".a###############a..",
".#aaaaaaaaaaaaaaa#..",
"....................",
"....................",
"....................",
"....................",
".#bbbbbbbbbbbbbbb#..",
".bcccccccccccccccb..",
".bcccccccccccccccb..",
".bcccccbbbbbbbbccb..",
".bcccccbbbbbbbbccb..",
".bcccccbccccccbccb..",
".bccbbbbbbbbbcbccb..",
".bccbbbbbbbbbcbccb..",
".bccbcccccccbcbccb..",
".bccbcccccccbbbccb..",
".bccbcccccccbccccb..",
".bccbcccccccbccccb..",
".bccbbbbbbbbbccccb..",
".bcccccccccccccccb..",
".bcccccccccccccccb..",
".#bbbbbbbbbbbbbbb#..",
"....................",
"...................."};
