/* XPM */
static char *titleIR[]={
"60 20 2 1",
"# c #008000",
". c #57d21a",
"....#.......##......###.....####....#####...######..#######.",
"....#.......##......###.....####....#####...######..#######.",
"....#.......##......###.....####....#####...######..#######.",
"....#.......##......###.....####....#####...######..#######.",
"....#.......##......###.....####....#####...######..#######.",
"....#.......##......###.....####....#####...######..#######.",
"....#.......##......###.....####....#####...######..#######.",
"....#.......##......###.....####....#####...######..#######.",
"....#.......##......###.....####....#####...######..#######.",
"....#.......##......###.....####....#####...######..#######.",
"....#.......##......###.....####....#####...######..#######.",
"....#.......##......###.....####....#####...######..#######.",
"....#.......##......###.....####....#####...######..#######.",
"....#.......##......###.....####....#####...######..#######.",
"....#.......##......###.....####....#####...######..#######.",
"....#.......##......###.....####....#####...######..#######.",
"....#.......##......###.....####....#####...######..#######.",
"....#.......##......###.....####....#####...######..#######.",
"....#.......##......###.....####....#####...######..#######.",
"....#.......##......###.....####....#####...######..#######."};
