/* XPM */
static char *titleAR[]={
"60 20 2 1",
"# c #bd7823",
". c #ea942b",
"....#.......##......###.....####....#####...######..#######.",
"....#.......##......###.....####....#####...######..#######.",
"....#.......##......###.....####....#####...######..#######.",
"....#.......##......###.....####....#####...######..#######.",
"....#.......##......###.....####....#####...######..#######.",
"....#.......##......###.....####....#####...######..#######.",
"....#.......##......###.....####....#####...######..#######.",
"....#.......##......###.....####....#####...######..#######.",
"....#.......##......###.....####....#####...######..#######.",
"....#.......##......###.....####....#####...######..#######.",
"....#.......##......###.....####....#####...######..#######.",
"....#.......##......###.....####....#####...######..#######.",
"....#.......##......###.....####....#####...######..#######.",
"....#.......##......###.....####....#####...######..#######.",
"....#.......##......###.....####....#####...######..#######.",
"....#.......##......###.....####....#####...######..#######.",
"....#.......##......###.....####....#####...######..#######.",
"....#.......##......###.....####....#####...######..#######.",
"....#.......##......###.....####....#####...######..#######.",
"....#.......##......###.....####....#####...######..#######."};
