/* XPM */
static char * icewm_xpm[] = {
"58 20 240 2",
"  	c None",
". 	c #EAD97A",
"+ 	c #D6C566",
"@ 	c #E2D172",
"# 	c #B2A142",
"$ 	c #FFFFA6",
"% 	c #FFFFBC",
"& 	c #CAB95A",
"* 	c #CCBB5C",
"= 	c #FEED8E",
"- 	c #E8D778",
"; 	c #FAE98A",
"> 	c #E0CF70",
", 	c #FFFFAC",
"' 	c #CEBD5E",
") 	c #8C7B1C",
"! 	c #FFFFBA",
"~ 	c #FFFFAA",
"{ 	c #EEDD7E",
"] 	c #C4B354",
"^ 	c #FFFFAE",
"/ 	c #DAC96A",
"( 	c #A89738",
"_ 	c #FFFFA0",
": 	c #FFFFB0",
"< 	c #BCAB4C",
"[ 	c #FFF99A",
"} 	c #B6A546",
"| 	c #FFFFB4",
"1 	c #907F20",
"2 	c #D4C364",
"3 	c #AC9B3C",
"4 	c #FFFFB8",
"5 	c #F4E384",
"6 	c #D2C162",
"7 	c #FFFFC0",
"8 	c #9A892A",
"9 	c #FFEF90",
"0 	c #BAA94A",
"a 	c #FFF192",
"b 	c #C2B152",
"c 	c #FFFFC6",
"d 	c #FFFB9C",
"e 	c #FFFFD0",
"f 	c #E4D374",
"g 	c #FFFFD2",
"h 	c #F8E788",
"i 	c #FFFFC4",
"j 	c #FFFFA2",
"k 	c #FFFFB2",
"l 	c #FFFFA4",
"m 	c #DCCB6C",
"n 	c #9E8D2E",
"o 	c #968526",
"p 	c #AA993A",
"q 	c #F6E586",
"r 	c #7A4514",
"s 	c #705F00",
"t 	c #B8A748",
"u 	c #948324",
"v 	c #E6D576",
"w 	c #8E7D1E",
"x 	c #FFFFCC",
"y 	c #B09F40",
"z 	c #DECD6E",
"A 	c #FFF394",
"B 	c #4F1A00",
"C 	c #8E5928",
"D 	c #642F00",
"E 	c #D0BF60",
"F 	c #A69536",
"G 	c #847314",
"H 	c #FFFFDA",
"I 	c #D8C768",
"J 	c #FFFFD4",
"K 	c #9D6837",
"L 	c #FFFFA8",
"M 	c #FFFFF0",
"N 	c #FFFFBE",
"O 	c #FFFFE0",
"P 	c #FFF596",
"Q 	c #FFFFE4",
"R 	c #BEAD4E",
"S 	c #FFFFCA",
"T 	c #743F0E",
"U 	c #A16C3B",
"V 	c #D49F6E",
"W 	c #FFFFE6",
"X 	c #FCEB8C",
"Y 	c #C6B556",
"Z 	c #A97443",
"` 	c #491400",
" .	c #5F2A00",
"..	c #806F10",
"+.	c #8A791A",
"@.	c #976231",
"#.	c #B98453",
"$.	c #501B00",
"%.	c #887718",
"&.	c #6D3807",
"*.	c #7D4817",
"=.	c #B27D4C",
"-.	c #703B0A",
";.	c #794413",
">.	c #FFFD9E",
",.	c #6E3908",
"'.	c #9B6635",
").	c #AC7746",
"!.	c #B4A344",
"~.	c #824D1C",
"{.	c #683302",
"].	c #FFFFCE",
"^.	c #915C2B",
"/.	c #D19C6B",
"(.	c #986332",
"_.	c #A08F30",
":.	c #FFFFEA",
"<.	c #DDA877",
"[.	c #865120",
"}.	c #885322",
"|.	c #BE8958",
"1.	c #C5905F",
"2.	c #FFFFDE",
"3.	c #774211",
"4.	c #895423",
"5.	c #D9A473",
"6.	c #8F5A29",
"7.	c #6BDA2F",
"8.	c #B37E4D",
"9.	c #521D00",
"0.	c #804B1A",
"a.	c #95602F",
"b.	c #7C4716",
"c.	c #A36E3D",
"d.	c #988728",
"e.	c #CA9564",
"f.	c #CD9867",
"g.	c #A06B3A",
"h.	c #D39E6D",
"i.	c #AD7847",
"j.	c #D09B6A",
"k.	c #834E1D",
"l.	c #B5804F",
"m.	c #A46F3E",
"n.	c #DAA574",
"o.	c #ECB786",
"p.	c #BF8A59",
"q.	c #612C00",
"r.	c #AF7A49",
"s.	c #713C0B",
"t.	c #945F2E",
"u.	c #9A6534",
"v.	c #C18C5B",
"w.	c #C79261",
"x.	c #9C8B2C",
"y.	c #AE9D3E",
"z.	c #653000",
"A.	c #764110",
"B.	c #733E0D",
"C.	c #3D0800",
"D.	c #2F0000",
"E.	c #8C5726",
"F.	c #350000",
"G.	c #A67140",
"H.	c #AA7544",
"I.	c #85501F",
"J.	c #CE9968",
"K.	c #622D00",
"L.	c #673201",
"M.	c #FFFFFC",
"N.	c #F2E182",
"O.	c #E9B483",
"P.	c #B07B4A",
"Q.	c #3E0900",
"R.	c #582300",
"S.	c #3A0500",
"T.	c #4C1700",
"U.	c #C8B758",
"V.	c #D6A170",
"W.	c #E0AB7A",
"X.	c #592400",
"Y.	c #C89362",
"Z.	c #440F00",
"`.	c #645300",
" +	c #A49334",
".+	c #531E00",
"++	c #7F4A19",
"@+	c #DFAA79",
"#+	c #461100",
"$+	c #6B3605",
"%+	c #5C2700",
"&+	c #320000",
"*+	c #CB9665",
"=+	c #FBC695",
"-+	c #E2AD7C",
";+	c #FFFFE2",
">+	c #BB8655",
",+	c #BC8756",
"'+	c #E5B07F",
")+	c #5B2600",
"!+	c #6A3504",
"~+	c #400B00",
"{+	c #FFFFFF",
"]+	c #A77241",
"^+	c #F2BD8C",
"/+	c #B88352",
"(+	c #562100",
"_+	c #430E00",
":+	c #C0AF50",
"<+	c #C48F5E",
"[+	c #E3AE7D",
"}+	c #925D2C",
"|+	c #FFFFB6",
"1+	c #665500",
"2+	c #9E6938",
"3+	c #C28D5C",
"4+	c #F0DF80",
"5+	c #B68150",
"6+	c #4D1800",
"7+	c #220000",
"8+	c #7E6D0E",
"9+	c #FFCC9B",
"0+	c #FFF798",
"a+	c #F5C08F",
"b+	c #E6B180",
"c+	c #FAC594",
"d+	c #410C00",
"e+	c #552000",
"f+	c #786708",
"g+	c #7C6B0C",
"h+	c #A29132",
"i+	c #827112",
"j+	c #FFFFC8",
"k+	c #ECDB7C",
"l+	c #FFFFF6",
"m+	c #FFFFC2",
"n+	c #FFFFF8",
"o+	c #FFFFDC",
"p+	c #FFFFD6",
"q+	c #FFFFF4",
". + @ # $ % & * = - ; > & , ' ) ! ~ & { ] = ^ . / / ( _ : < _ [ } { | 1 2 ; 3 , 4 + 5 6 ] 7 = 8 9 , 0 a ' & 7 0 / ! ",
"5 > 9 b , c 2 d e ~ c ; f g h < i j ' : k l ; m / f n = | o . d p } q ) r f s ] / t b u 1 v + w q _ o < b h x y n z ",
"f 0 A 0 f l B ] C D = E # | z F k , G 3 $ H 7 I . J K L M . N O P N Q R v S T A d 5 ! U ; i 9 n l V q P y f W A X ~ ",
"E ) 2 Y > Z `  .m  .r t ..I R +.@.#.$.%.&.*.=.-.p = 0 ;.>.,.'.).!.~.: {.F ^ / | ].& ^ #.^./.S # Z Q (.9 _.{.S ; $ :.",
"A I a _ x <.[.}.|.1.2., 3.Z = 4.c 5.6.v 7.7.8.# 9.U f . [.-.k d {.-./ 0.4.a.8 h c u T 7.7.-.= F b.c.-.a.] d.A 0 +.9 ",
"= m A / K e.4.T - E d ).0.f.g.] ].h.i.j.7.7./.k.{.l.m./.g.y n./.$ <.l.Z o.p.q.r.i s.K 7.7.t.c.&.u.v.m.w._ t X . ] ; ",
"2 x.y.1 0 r.*.z.A.q.r B.C.@.*.D.0.;.$.E.7.7.^.&.{.).q.k.0.F.G.H.I.J.G.K.G.t.$.=.i.L.8.7.7.u.G.L.(.Z [.l.[ C e >.~ M.",
"q f P N.[ O.Z c.v.P.e.u.7.7.7.7.7.k.7.7.7.7.7.7.{.w.t.7.7.7.7.;.9.H.7.7.7.7.7.}.4.7.7.7.7.7.7.Q.L.R.S.~.R T.N.0 < | ",
"2 U.{ 2 ,.| E.^.l.4.V.7.7.5.|.7.7.l.A.c.7.7.W.;.X.Y.7.7.K u.7.7.Z.=.n.7.7.7.7.7.|.b.T 7.7.G.4.q.m.Z q.E.9 / a y `.y ",
"' p p y. +* T.-.Z .+++7.7.|.U {.@+/.#+{.7.7.K b.q.#.g.3.$+%+7.7.&+++*+7.7.n.m.#.<.6.u.7.7.=+f.s.l.-+K ~ Y.^ ;+^ Y _ ",
"| ~ [ A 1.>+%+r Y.[.t.[.7.7.7.7.,+'+)+b.7.7.a.!+R.K T 7.7.7.7.7.Z.Z.3.7.7.i.-.,.#.B.~+7.7.p.V D u.w.&.E.I.x.[ ^ A c ",
"e x ].a *+{+).]+V.g.v.|.b.,+Z 7.7.^+++6.7.7.'+7.7.i.7.7.f.a.7.7.l.Z #.7.7./+I.*.1.^.B 7.7.(+7.7.&.(.Q.y & _+:+p !.d ",
"Y t 9 ] d.*.,.;.@.X.}.7.7.H.0.7.7.v.L.Z.7.7.<.7.7.>+7.7.n.<+7.7.l.*+[+7.7.w.}+^.h.,+1.7.7.H.7.7.).J.U l.#.A |+:+t x ",
"8 1+z 5 b y.Z.,.2+r ;.7.7.7.7.7.;.2+z.F.D.7.7.7.X.3.D 7.7.7.7.7.7.;.7.7.7.7.7.!+m.B.^.#.7.7.7.;.v.'+3+f.f.#.H . y e ",
"~ 6 >.|+c :.v u.f.V 3+^ T ; f.s.P /.(.4+I..+u.1.;.c.[. .m.).).}.Z.A.>+++r l.{.~.5+$.6+T (+B.$+7+$.a.Y u } < + R 8+P ",
"N.U.- . ; {+@ {.K k g -+E.~.~ b.3+9+j 0+l.0 ~ -+I.| f.^.,+r./.a+^ |.O.*+,+b+4.E.c+,+g.f.k 5+/+K.$.= . 8 y :+A [ !.j ",
"p ) 8 8 w 9 y.d+b  +!.f p ' }.e+. c @ # * f+y j p z =.!.2 %+U., }.*.@ 2 { x ] 8+a = U.A ).P H 4+&.i | [ J h : |+& ~ ",
"^ A d E p - b 6 A {.!.E x.0.R G - l & m a 0 p * u y m y.2 +.f+!.w 3 E ~+G 4+T w b } g+n h+$.. < 6+g.2  +4+y v = i+x.",
"j+| {+].: J 2 k+l+L ~ 4 { m+[ x.[ M I 2+n+2.o+: k+~ 7 c ].m f 4 ; [ 2.X + 4 9 { S ^ X j . q S 9 E P z p E h+4+S + z ",
"F +.5 v & ~  +8+_ f . 9 :+7 c 0 5 p+R %.] / c $ & ; - P O q f k I { |+9 _ q+>.' % _ ! l+_ [ o+N k M O c x k+>.g a o+"};
